<svg xmlns="http://www.w3.org/2000/svg" width="1200" height="840" viewBox="0 0 1200 840"><rect width="1200" height="840" fill="#ffffff"/><rect x="8" y="8" width="1184" height="824" rx="16" fill="#ffffff" stroke="#33373b" stroke-width="2.6"/>
<rect x="24" y="20" width="150" height="26" rx="8" fill="#eef1f4" stroke="#33373b" stroke-width="1.6"/>
<text x="36" y="38" font-family="Architects Daughter" font-size="16" fill="#6b7178" text-anchor="start" font-weight="normal">A Web Page</text>
<circle cx="1134" cy="33" r="7" fill="none" stroke="#33373b" stroke-width="2"/>
<circle cx="1156" cy="33" r="7" fill="none" stroke="#33373b" stroke-width="2"/>
<circle cx="1176" cy="33" r="7" fill="none" stroke="#33373b" stroke-width="2"/>
<rect x="24" y="54" width="1152" height="30" rx="15" fill="#fbfbfc" stroke="#33373b" stroke-width="1.6"/>
<circle cx="44" cy="69" r="7" fill="none" stroke="#6b7178" stroke-width="2"/>
<text x="60" y="75" font-family="Architects Daughter" font-size="16" fill="#6b7178" text-anchor="start" font-weight="normal">https://www.aisolutions-demo.com/services.php</text>
<circle cx="44" cy="124" r="18" fill="#ffffff" stroke="#33373b" stroke-width="2.4"/>
<text x="44" y="130" font-family="Architects Daughter" font-size="18" fill="#33373b" text-anchor="middle" font-weight="bold">AI</text>
<text x="72" y="131" font-family="Architects Daughter" font-size="24" fill="#33373b" text-anchor="start" font-weight="bold">AI-Solutions</text>
<rect x="1093" y="108" width="67" height="34" rx="17" fill="#ffffff" stroke="#33373b" stroke-width="1.8"/>
<text x="1126.5" y="130" font-family="Architects Daughter" font-size="18" fill="#33373b" text-anchor="middle" font-weight="normal">Login</text>
<rect x="922" y="108" width="155" height="34" rx="17.0" fill="#33373b" stroke="#33373b" stroke-width="2.2"/>
<text x="999.5" y="131.12" font-family="Architects Daughter" font-size="18" fill="#ffffff" text-anchor="middle" font-weight="normal">Schedule Demo</text>
<rect x="817" y="108" width="89" height="34" rx="17" fill="#ffffff" stroke="#33373b" stroke-width="1.8"/>
<text x="861.5" y="130" font-family="Architects Daughter" font-size="18" fill="#33373b" text-anchor="middle" font-weight="normal">Contact</text>
<rect x="701" y="108" width="100" height="34" rx="17" fill="#ffffff" stroke="#33373b" stroke-width="1.8"/>
<text x="751.0" y="130" font-family="Architects Daughter" font-size="18" fill="#33373b" text-anchor="middle" font-weight="normal">Articles</text>
<rect x="607" y="108" width="78" height="34" rx="17" fill="#ffffff" stroke="#33373b" stroke-width="1.8"/>
<text x="646.0" y="130" font-family="Architects Daughter" font-size="18" fill="#33373b" text-anchor="middle" font-weight="normal">Events</text>
<rect x="480" y="108" width="111" height="34" rx="17" fill="#eef1f4" stroke="#33373b" stroke-width="1.8"/>
<text x="535.5" y="130" font-family="Architects Daughter" font-size="18" fill="#33373b" text-anchor="middle" font-weight="normal">Solutions</text>
<rect x="408" y="108" width="56" height="34" rx="17" fill="#ffffff" stroke="#33373b" stroke-width="1.8"/>
<text x="436.0" y="130" font-family="Architects Daughter" font-size="18" fill="#33373b" text-anchor="middle" font-weight="normal">Home</text>
<line x1="24" y1="154" x2="1176" y2="154" stroke="#c7ccd2" stroke-width="1.4"/>
<text x="40" y="214" font-family="Architects Daughter" font-size="34" fill="#33373b" text-anchor="start" font-weight="bold">Software Solutions &amp; Services</text>
<rect x="40" y="232" width="560" height="10" rx="5.0" fill="#c7ccd2" stroke="none" stroke-width="0"/>
<rect x="40" y="252" width="392" height="10" rx="5.0" fill="#c7ccd2" stroke="none" stroke-width="0"/>
<text x="40" y="280" font-family="Architects Daughter" font-size="18" fill="#6b7178" text-anchor="start" font-weight="normal">Filter:</text>
<rect x="110" y="260" width="63" height="30" rx="15" fill="#eef1f4" stroke="#33373b" stroke-width="1.6"/>
<rect x="183" y="260" width="140" height="30" rx="15" fill="#fff" stroke="#33373b" stroke-width="1.6"/>
<rect x="333" y="260" width="140" height="30" rx="15" fill="#fff" stroke="#33373b" stroke-width="1.6"/>
<rect x="483" y="260" width="129" height="30" rx="15" fill="#fff" stroke="#33373b" stroke-width="1.6"/>
<rect x="622" y="260" width="151" height="30" rx="15" fill="#fff" stroke="#33373b" stroke-width="1.6"/>
<text x="141.5" y="280" font-family="Architects Daughter" font-size="16" fill="#33373b" text-anchor="middle" font-weight="normal">All</text>
<text x="253.0" y="280" font-family="Architects Daughter" font-size="16" fill="#33373b" text-anchor="middle" font-weight="normal">Assistants</text>
<text x="403.0" y="280" font-family="Architects Daughter" font-size="16" fill="#33373b" text-anchor="middle" font-weight="normal">Automation</text>
<text x="547.5" y="280" font-family="Architects Daughter" font-size="16" fill="#33373b" text-anchor="middle" font-weight="normal">Analytics</text>
<text x="697.5" y="280" font-family="Architects Daughter" font-size="16" fill="#33373b" text-anchor="middle" font-weight="normal">Prototyping</text>
<rect x="40.0" y="310" width="361.3333333333333" height="134" rx="10" fill="#fff" stroke="#33373b" stroke-width="2"/>
<rect x="56.0" y="326" width="34" height="34" rx="6" fill="#e3e7ec" stroke="#33373b" stroke-width="1.6"/>
<text x="56.0" y="388" font-family="Architects Daughter" font-size="18" fill="#33373b" text-anchor="start" font-weight="bold">Virtual Assistant</text>
<rect x="56.0" y="402" width="329.3333333333333" height="10" rx="5.0" fill="#c7ccd2" stroke="none" stroke-width="0"/>
<rect x="56.0" y="415" width="230" height="10" rx="5.0" fill="#c7ccd2" stroke="none" stroke-width="0"/>
<text x="56.0" y="436" font-family="Architects Daughter" font-size="15" fill="#6b7178" text-anchor="start" font-weight="normal">Learn more →</text>
<rect x="419.3333333333333" y="310" width="361.3333333333333" height="134" rx="10" fill="#fff" stroke="#33373b" stroke-width="2"/>
<rect x="435.3333333333333" y="326" width="34" height="34" rx="6" fill="#e3e7ec" stroke="#33373b" stroke-width="1.6"/>
<text x="435.3333333333333" y="388" font-family="Architects Daughter" font-size="18" fill="#33373b" text-anchor="start" font-weight="bold">Workflow Automation</text>
<rect x="435.3333333333333" y="402" width="329.3333333333333" height="10" rx="5.0" fill="#c7ccd2" stroke="none" stroke-width="0"/>
<rect x="435.3333333333333" y="415" width="230" height="10" rx="5.0" fill="#c7ccd2" stroke="none" stroke-width="0"/>
<text x="435.3333333333333" y="436" font-family="Architects Daughter" font-size="15" fill="#6b7178" text-anchor="start" font-weight="normal">Learn more →</text>
<rect x="798.6666666666666" y="310" width="361.3333333333333" height="134" rx="10" fill="#fff" stroke="#33373b" stroke-width="2"/>
<rect x="814.6666666666666" y="326" width="34" height="34" rx="6" fill="#e3e7ec" stroke="#33373b" stroke-width="1.6"/>
<text x="814.6666666666666" y="388" font-family="Architects Daughter" font-size="18" fill="#33373b" text-anchor="start" font-weight="bold">Data Analytics</text>
<rect x="814.6666666666666" y="402" width="329.3333333333333" height="10" rx="5.0" fill="#c7ccd2" stroke="none" stroke-width="0"/>
<rect x="814.6666666666666" y="415" width="230" height="10" rx="5.0" fill="#c7ccd2" stroke="none" stroke-width="0"/>
<text x="814.6666666666666" y="436" font-family="Architects Daughter" font-size="15" fill="#6b7178" text-anchor="start" font-weight="normal">Learn more →</text>
<rect x="40.0" y="460" width="361.3333333333333" height="134" rx="10" fill="#fff" stroke="#33373b" stroke-width="2"/>
<rect x="56.0" y="476" width="34" height="34" rx="6" fill="#e3e7ec" stroke="#33373b" stroke-width="1.6"/>
<text x="56.0" y="538" font-family="Architects Daughter" font-size="18" fill="#33373b" text-anchor="start" font-weight="bold">AI Prototyping</text>
<rect x="56.0" y="552" width="329.3333333333333" height="10" rx="5.0" fill="#c7ccd2" stroke="none" stroke-width="0"/>
<rect x="56.0" y="565" width="230" height="10" rx="5.0" fill="#c7ccd2" stroke="none" stroke-width="0"/>
<text x="56.0" y="586" font-family="Architects Daughter" font-size="15" fill="#6b7178" text-anchor="start" font-weight="normal">Learn more →</text>
<rect x="419.3333333333333" y="460" width="361.3333333333333" height="134" rx="10" fill="#fff" stroke="#33373b" stroke-width="2"/>
<rect x="435.3333333333333" y="476" width="34" height="34" rx="6" fill="#e3e7ec" stroke="#33373b" stroke-width="1.6"/>
<text x="435.3333333333333" y="538" font-family="Architects Daughter" font-size="18" fill="#33373b" text-anchor="start" font-weight="bold">Integration</text>
<rect x="435.3333333333333" y="552" width="329.3333333333333" height="10" rx="5.0" fill="#c7ccd2" stroke="none" stroke-width="0"/>
<rect x="435.3333333333333" y="565" width="230" height="10" rx="5.0" fill="#c7ccd2" stroke="none" stroke-width="0"/>
<text x="435.3333333333333" y="586" font-family="Architects Daughter" font-size="15" fill="#6b7178" text-anchor="start" font-weight="normal">Learn more →</text>
<rect x="798.6666666666666" y="460" width="361.3333333333333" height="134" rx="10" fill="#fff" stroke="#33373b" stroke-width="2"/>
<rect x="814.6666666666666" y="476" width="34" height="34" rx="6" fill="#e3e7ec" stroke="#33373b" stroke-width="1.6"/>
<text x="814.6666666666666" y="538" font-family="Architects Daughter" font-size="18" fill="#33373b" text-anchor="start" font-weight="bold">Support &amp; Training</text>
<rect x="814.6666666666666" y="552" width="329.3333333333333" height="10" rx="5.0" fill="#c7ccd2" stroke="none" stroke-width="0"/>
<rect x="814.6666666666666" y="565" width="230" height="10" rx="5.0" fill="#c7ccd2" stroke="none" stroke-width="0"/>
<text x="814.6666666666666" y="586" font-family="Architects Daughter" font-size="15" fill="#6b7178" text-anchor="start" font-weight="normal">Learn more →</text>
<circle cx="1142" cy="748" r="26" fill="#eef1f4" stroke="#33373b" stroke-width="2.2"/>
<text x="1142" y="754" font-family="Architects Daughter" font-size="16" fill="#33373b" text-anchor="middle" font-weight="bold">AI</text>
<line x1="24" y1="794" x2="1176" y2="794" stroke="#c7ccd2" stroke-width="1.4"/>
<text x="600.0" y="818" font-family="Architects Daughter" font-size="18" fill="#6b7178" text-anchor="middle" font-weight="normal">@ AI-Solutions</text></svg>