<svg xmlns="http://www.w3.org/2000/svg" width="1200" height="840" viewBox="0 0 1200 840"><rect width="1200" height="840" fill="#ffffff"/><rect x="8" y="8" width="1184" height="824" rx="16" fill="#ffffff" stroke="#33373b" stroke-width="2.6"/>
<rect x="24" y="20" width="150" height="26" rx="8" fill="#eef1f4" stroke="#33373b" stroke-width="1.6"/>
<text x="36" y="38" font-family="Architects Daughter" font-size="16" fill="#6b7178" text-anchor="start" font-weight="normal">A Web Page</text>
<circle cx="1134" cy="33" r="7" fill="none" stroke="#33373b" stroke-width="2"/>
<circle cx="1156" cy="33" r="7" fill="none" stroke="#33373b" stroke-width="2"/>
<circle cx="1176" cy="33" r="7" fill="none" stroke="#33373b" stroke-width="2"/>
<rect x="24" y="54" width="1152" height="30" rx="15" fill="#fbfbfc" stroke="#33373b" stroke-width="1.6"/>
<circle cx="44" cy="69" r="7" fill="none" stroke="#6b7178" stroke-width="2"/>
<text x="60" y="75" font-family="Architects Daughter" font-size="16" fill="#6b7178" text-anchor="start" font-weight="normal">https://www.aisolutions-demo.com/chatbot.php</text>
<circle cx="44" cy="124" r="18" fill="#ffffff" stroke="#33373b" stroke-width="2.4"/>
<text x="44" y="130" font-family="Architects Daughter" font-size="18" fill="#33373b" text-anchor="middle" font-weight="bold">AI</text>
<text x="72" y="131" font-family="Architects Daughter" font-size="24" fill="#33373b" text-anchor="start" font-weight="bold">AI-Solutions</text>
<rect x="1093" y="108" width="67" height="34" rx="17" fill="#ffffff" stroke="#33373b" stroke-width="1.8"/>
<text x="1126.5" y="130" font-family="Architects Daughter" font-size="18" fill="#33373b" text-anchor="middle" font-weight="normal">Login</text>
<rect x="922" y="108" width="155" height="34" rx="17.0" fill="#33373b" stroke="#33373b" stroke-width="2.2"/>
<text x="999.5" y="131.12" font-family="Architects Daughter" font-size="18" fill="#ffffff" text-anchor="middle" font-weight="normal">Schedule Demo</text>
<rect x="817" y="108" width="89" height="34" rx="17" fill="#ffffff" stroke="#33373b" stroke-width="1.8"/>
<text x="861.5" y="130" font-family="Architects Daughter" font-size="18" fill="#33373b" text-anchor="middle" font-weight="normal">Contact</text>
<rect x="701" y="108" width="100" height="34" rx="17" fill="#ffffff" stroke="#33373b" stroke-width="1.8"/>
<text x="751.0" y="130" font-family="Architects Daughter" font-size="18" fill="#33373b" text-anchor="middle" font-weight="normal">Articles</text>
<rect x="607" y="108" width="78" height="34" rx="17" fill="#ffffff" stroke="#33373b" stroke-width="1.8"/>
<text x="646.0" y="130" font-family="Architects Daughter" font-size="18" fill="#33373b" text-anchor="middle" font-weight="normal">Events</text>
<rect x="480" y="108" width="111" height="34" rx="17" fill="#ffffff" stroke="#33373b" stroke-width="1.8"/>
<text x="535.5" y="130" font-family="Architects Daughter" font-size="18" fill="#33373b" text-anchor="middle" font-weight="normal">Solutions</text>
<rect x="408" y="108" width="56" height="34" rx="17" fill="#ffffff" stroke="#33373b" stroke-width="1.8"/>
<text x="436.0" y="130" font-family="Architects Daughter" font-size="18" fill="#33373b" text-anchor="middle" font-weight="normal">Home</text>
<line x1="24" y1="154" x2="1176" y2="154" stroke="#c7ccd2" stroke-width="1.4"/>
<text x="40" y="214" font-family="Architects Daughter" font-size="34" fill="#33373b" text-anchor="start" font-weight="bold">AI Virtual Assistant</text>
<rect x="40" y="246" width="1120" height="470" rx="12" fill="#fbfbfc" stroke="#33373b" stroke-width="2"/>
<rect x="56" y="262" width="1088" height="46" rx="10" fill="#fff" stroke="#33373b" stroke-width="1.8"/>
<circle cx="82" cy="285" r="15" fill="#eef1f4" stroke="#33373b" stroke-width="1.8"/>
<text x="82" y="291" font-family="Architects Daughter" font-size="13" fill="#33373b" text-anchor="middle" font-weight="bold">AI</text>
<text x="110" y="292" font-family="Architects Daughter" font-size="18" fill="#33373b" text-anchor="start" font-weight="bold">AI-Solutions Virtual Assistant</text>
<text x="1050" y="292" font-family="Architects Daughter" font-size="15" fill="#6b7178" text-anchor="start" font-weight="normal">24/7 support</text>
<rect x="70" y="328" width="520" height="60" rx="12" fill="#fff" stroke="#33373b" stroke-width="1.8"/>
<text x="86" y="354" font-family="Architects Daughter" font-size="17" fill="#33373b" text-anchor="start" font-weight="normal">Hello! I'm your AI Assistant.</text>
<text x="86" y="376" font-family="Architects Daughter" font-size="17" fill="#33373b" text-anchor="start" font-weight="normal">How can I help you today?</text>
<rect x="70" y="404" width="210" height="36" rx="18" fill="#eef1f4" stroke="#33373b" stroke-width="1.6"/>
<text x="175.0" y="427" font-family="Architects Daughter" font-size="15" fill="#33373b" text-anchor="middle" font-weight="normal">Software Solutions</text>
<rect x="290" y="404" width="160" height="36" rx="18" fill="#eef1f4" stroke="#33373b" stroke-width="1.6"/>
<text x="370.0" y="427" font-family="Architects Daughter" font-size="15" fill="#33373b" text-anchor="middle" font-weight="normal">Schedule Demo</text>
<rect x="460" y="404" width="90" height="36" rx="18" fill="#eef1f4" stroke="#33373b" stroke-width="1.6"/>
<text x="505.0" y="427" font-family="Architects Daughter" font-size="15" fill="#33373b" text-anchor="middle" font-weight="normal">Events</text>
<rect x="560" y="404" width="170" height="36" rx="18" fill="#eef1f4" stroke="#33373b" stroke-width="1.6"/>
<text x="645.0" y="427" font-family="Architects Daughter" font-size="15" fill="#33373b" text-anchor="middle" font-weight="normal">Speak to Sales</text>
<rect x="640" y="458" width="490" height="46" rx="12" fill="#e3e7ec" stroke="#33373b" stroke-width="1.8"/>
<text x="660" y="486" font-family="Architects Daughter" font-size="16" fill="#33373b" text-anchor="start" font-weight="normal">Can you tell me more about your solutions?</text>
<rect x="70" y="520" width="620" height="70" rx="12" fill="#fff" stroke="#33373b" stroke-width="1.8"/>
<rect x="86" y="546" width="590" height="10" rx="5.0" fill="#c7ccd2" stroke="none" stroke-width="0"/>
<rect x="86" y="564" width="413" height="10" rx="5.0" fill="#c7ccd2" stroke="none" stroke-width="0"/>
<rect x="56" y="646" width="940" height="46" rx="23" fill="#fff" stroke="#33373b" stroke-width="1.8"/>
<text x="74" y="674" font-family="Architects Daughter" font-size="17" fill="#6b7178" text-anchor="start" font-weight="normal">Type your message...</text>
<rect x="1012" y="646" width="130" height="46" rx="23.0" fill="#33373b" stroke="#33373b" stroke-width="2.2"/>
<text x="1077.0" y="675.8" font-family="Architects Daughter" font-size="20" fill="#ffffff" text-anchor="middle" font-weight="normal">Send</text>
<line x1="24" y1="794" x2="1176" y2="794" stroke="#c7ccd2" stroke-width="1.4"/>
<text x="600.0" y="818" font-family="Architects Daughter" font-size="18" fill="#6b7178" text-anchor="middle" font-weight="normal">@ AI-Solutions</text></svg>