<svg xmlns="http://www.w3.org/2000/svg" width="1200" height="840" viewBox="0 0 1200 840"><rect width="1200" height="840" fill="#ffffff"/><rect x="8" y="8" width="1184" height="824" rx="16" fill="#ffffff" stroke="#33373b" stroke-width="2.6"/>
<rect x="24" y="20" width="150" height="26" rx="8" fill="#eef1f4" stroke="#33373b" stroke-width="1.6"/>
<text x="36" y="38" font-family="Architects Daughter" font-size="16" fill="#6b7178" text-anchor="start" font-weight="normal">A Web Page</text>
<circle cx="1134" cy="33" r="7" fill="none" stroke="#33373b" stroke-width="2"/>
<circle cx="1156" cy="33" r="7" fill="none" stroke="#33373b" stroke-width="2"/>
<circle cx="1176" cy="33" r="7" fill="none" stroke="#33373b" stroke-width="2"/>
<rect x="24" y="54" width="1152" height="30" rx="15" fill="#fbfbfc" stroke="#33373b" stroke-width="1.6"/>
<circle cx="44" cy="69" r="7" fill="none" stroke="#6b7178" stroke-width="2"/>
<text x="60" y="75" font-family="Architects Daughter" font-size="16" fill="#6b7178" text-anchor="start" font-weight="normal">https://www.aisolutions-demo.com/admin/login.php</text>
<rect x="380.0" y="160" width="440" height="360" rx="16" fill="#fbfbfc" stroke="#33373b" stroke-width="2.2"/>
<circle cx="600.0" cy="218" r="22" fill="#fff" stroke="#33373b" stroke-width="2.2"/>
<text x="600.0" y="225" font-family="Architects Daughter" font-size="18" fill="#33373b" text-anchor="middle" font-weight="bold">AI</text>
<text x="600.0" y="268" font-family="Architects Daughter" font-size="20" fill="#33373b" text-anchor="middle" font-weight="bold">AI-Solutions</text>
<text x="600.0" y="294" font-family="Architects Daughter" font-size="15" fill="#6b7178" text-anchor="middle" font-weight="normal">Secure Admin Access</text>
<text x="420.0" y="338" font-family="Architects Daughter" font-size="18" fill="#6b7178" text-anchor="start" font-weight="normal">Username</text>
<rect x="420.0" y="346" width="360" height="44" rx="8" fill="#fbfbfc" stroke="#33373b" stroke-width="1.8"/>
<text x="420.0" y="406" font-family="Architects Daughter" font-size="18" fill="#6b7178" text-anchor="start" font-weight="normal">Password</text>
<rect x="420.0" y="414" width="360" height="44" rx="8" fill="#fbfbfc" stroke="#33373b" stroke-width="1.8"/>
<rect x="420.0" y="460" width="360" height="44" rx="22.0" fill="#33373b" stroke="#33373b" stroke-width="2.2"/>
<text x="600.0" y="488.8" font-family="Architects Daughter" font-size="20" fill="#ffffff" text-anchor="middle" font-weight="normal">Login</text>
<text x="600.0" y="510" font-family="Architects Daughter" font-size="14" fill="#6b7178" text-anchor="middle" font-weight="normal">Authorised access only.</text></svg>