<svg xmlns="http://www.w3.org/2000/svg" width="1200" height="840" viewBox="0 0 1200 840"><rect width="1200" height="840" fill="#ffffff"/><rect x="8" y="8" width="1184" height="824" rx="16" fill="#ffffff" stroke="#33373b" stroke-width="2.6"/>
<rect x="24" y="20" width="150" height="26" rx="8" fill="#eef1f4" stroke="#33373b" stroke-width="1.6"/>
<text x="36" y="38" font-family="Architects Daughter" font-size="16" fill="#6b7178" text-anchor="start" font-weight="normal">A Web Page</text>
<circle cx="1134" cy="33" r="7" fill="none" stroke="#33373b" stroke-width="2"/>
<circle cx="1156" cy="33" r="7" fill="none" stroke="#33373b" stroke-width="2"/>
<circle cx="1176" cy="33" r="7" fill="none" stroke="#33373b" stroke-width="2"/>
<rect x="24" y="54" width="1152" height="30" rx="15" fill="#fbfbfc" stroke="#33373b" stroke-width="1.6"/>
<circle cx="44" cy="69" r="7" fill="none" stroke="#6b7178" stroke-width="2"/>
<text x="60" y="75" font-family="Architects Daughter" font-size="16" fill="#6b7178" text-anchor="start" font-weight="normal">https://www.aisolutions-demo.com/</text>
<circle cx="44" cy="124" r="18" fill="#ffffff" stroke="#33373b" stroke-width="2.4"/>
<text x="44" y="130" font-family="Architects Daughter" font-size="18" fill="#33373b" text-anchor="middle" font-weight="bold">AI</text>
<text x="72" y="131" font-family="Architects Daughter" font-size="24" fill="#33373b" text-anchor="start" font-weight="bold">AI-Solutions</text>
<rect x="1093" y="108" width="67" height="34" rx="17" fill="#ffffff" stroke="#33373b" stroke-width="1.8"/>
<text x="1126.5" y="130" font-family="Architects Daughter" font-size="18" fill="#33373b" text-anchor="middle" font-weight="normal">Login</text>
<rect x="922" y="108" width="155" height="34" rx="17.0" fill="#33373b" stroke="#33373b" stroke-width="2.2"/>
<text x="999.5" y="131.12" font-family="Architects Daughter" font-size="18" fill="#ffffff" text-anchor="middle" font-weight="normal">Schedule Demo</text>
<rect x="817" y="108" width="89" height="34" rx="17" fill="#ffffff" stroke="#33373b" stroke-width="1.8"/>
<text x="861.5" y="130" font-family="Architects Daughter" font-size="18" fill="#33373b" text-anchor="middle" font-weight="normal">Contact</text>
<rect x="701" y="108" width="100" height="34" rx="17" fill="#ffffff" stroke="#33373b" stroke-width="1.8"/>
<text x="751.0" y="130" font-family="Architects Daughter" font-size="18" fill="#33373b" text-anchor="middle" font-weight="normal">Articles</text>
<rect x="607" y="108" width="78" height="34" rx="17" fill="#ffffff" stroke="#33373b" stroke-width="1.8"/>
<text x="646.0" y="130" font-family="Architects Daughter" font-size="18" fill="#33373b" text-anchor="middle" font-weight="normal">Events</text>
<rect x="480" y="108" width="111" height="34" rx="17" fill="#ffffff" stroke="#33373b" stroke-width="1.8"/>
<text x="535.5" y="130" font-family="Architects Daughter" font-size="18" fill="#33373b" text-anchor="middle" font-weight="normal">Solutions</text>
<rect x="408" y="108" width="56" height="34" rx="17" fill="#eef1f4" stroke="#33373b" stroke-width="1.8"/>
<text x="436.0" y="130" font-family="Architects Daughter" font-size="18" fill="#33373b" text-anchor="middle" font-weight="normal">Home</text>
<line x1="24" y1="154" x2="1176" y2="154" stroke="#c7ccd2" stroke-width="1.4"/>
<text x="40" y="228" font-family="Architects Daughter" font-size="46" fill="#33373b" text-anchor="start" font-weight="bold">AI-powered</text>
<text x="40" y="276" font-family="Architects Daughter" font-size="46" fill="#33373b" text-anchor="start" font-weight="bold">business solutions</text>
<rect x="40" y="300" width="470" height="10" rx="5.0" fill="#c7ccd2" stroke="none" stroke-width="0"/>
<rect x="40" y="320" width="470" height="10" rx="5.0" fill="#c7ccd2" stroke="none" stroke-width="0"/>
<rect x="40" y="340" width="329" height="10" rx="5.0" fill="#c7ccd2" stroke="none" stroke-width="0"/>
<rect x="40" y="370" width="150" height="42" rx="21.0" fill="#33373b" stroke="#33373b" stroke-width="2.2"/>
<text x="115.0" y="397.8" font-family="Architects Daughter" font-size="20" fill="#ffffff" text-anchor="middle" font-weight="normal">Schedule Demo</text>
<rect x="202" y="370" width="168" height="42" rx="21.0" fill="#ffffff" stroke="#33373b" stroke-width="2.2"/>
<text x="286.0" y="397.8" font-family="Architects Daughter" font-size="20" fill="#33373b" text-anchor="middle" font-weight="normal">Explore Services</text>
<text x="40" y="456" font-family="Architects Daughter" font-size="26" fill="#33373b" text-anchor="start" font-weight="bold">24/7</text>
<text x="40" y="478" font-family="Architects Daughter" font-size="15" fill="#6b7178" text-anchor="start" font-weight="normal">assistant</text>
<text x="190" y="456" font-family="Architects Daughter" font-size="26" fill="#33373b" text-anchor="start" font-weight="bold">3x</text>
<text x="190" y="478" font-family="Architects Daughter" font-size="15" fill="#6b7178" text-anchor="start" font-weight="normal">faster leads</text>
<text x="340" y="456" font-family="Architects Daughter" font-size="26" fill="#33373b" text-anchor="start" font-weight="bold">100%</text>
<text x="340" y="478" font-family="Architects Daughter" font-size="15" fill="#6b7178" text-anchor="start" font-weight="normal">team owned</text>
<rect x="640" y="200" width="520" height="250" rx="12" fill="#eef1f4" stroke="#33373b" stroke-width="2"/>
<text x="900" y="320" font-family="Architects Daughter" font-size="20" fill="#6b7178" text-anchor="middle" font-weight="normal">[ Hero / AI graphic ]</text>
<circle cx="760" cy="290" r="22" fill="none" stroke="#6b7178" stroke-width="2"/>
<line x1="782" y1="290" x2="860" y2="260" stroke="#6b7178" stroke-width="2"/>
<line x1="782" y1="290" x2="880" y2="320" stroke="#6b7178" stroke-width="2"/>
<circle cx="880" cy="260" r="10" fill="none" stroke="#6b7178" stroke-width="2"/>
<circle cx="900" cy="328" r="10" fill="none" stroke="#6b7178" stroke-width="2"/>
<text x="40" y="510" font-family="Architects Daughter" font-size="18" fill="#6b7178" text-anchor="start" font-weight="normal">What we build</text>
<rect x="40.0" y="526" width="268.0" height="120" rx="10" fill="#ffffff" stroke="#33373b" stroke-width="2"/>
<rect x="56.0" y="540" width="30" height="30" rx="6" fill="#e3e7ec" stroke="#33373b" stroke-width="1.6"/>
<text x="56.0" y="596" font-family="Architects Daughter" font-size="16" fill="#33373b" text-anchor="start" font-weight="bold">Customer AI Assistants</text>
<rect x="56.0" y="608" width="236.0" height="10" rx="5.0" fill="#c7ccd2" stroke="none" stroke-width="0"/>
<rect x="56.0" y="620" width="165" height="10" rx="5.0" fill="#c7ccd2" stroke="none" stroke-width="0"/>
<rect x="324.0" y="526" width="268.0" height="120" rx="10" fill="#ffffff" stroke="#33373b" stroke-width="2"/>
<rect x="340.0" y="540" width="30" height="30" rx="6" fill="#e3e7ec" stroke="#33373b" stroke-width="1.6"/>
<text x="340.0" y="596" font-family="Architects Daughter" font-size="16" fill="#33373b" text-anchor="start" font-weight="bold">Workflow Automation</text>
<rect x="340.0" y="608" width="236.0" height="10" rx="5.0" fill="#c7ccd2" stroke="none" stroke-width="0"/>
<rect x="340.0" y="620" width="165" height="10" rx="5.0" fill="#c7ccd2" stroke="none" stroke-width="0"/>
<rect x="608.0" y="526" width="268.0" height="120" rx="10" fill="#ffffff" stroke="#33373b" stroke-width="2"/>
<rect x="624.0" y="540" width="30" height="30" rx="6" fill="#e3e7ec" stroke="#33373b" stroke-width="1.6"/>
<text x="624.0" y="596" font-family="Architects Daughter" font-size="16" fill="#33373b" text-anchor="start" font-weight="bold">Analytics Dashboards</text>
<rect x="624.0" y="608" width="236.0" height="10" rx="5.0" fill="#c7ccd2" stroke="none" stroke-width="0"/>
<rect x="624.0" y="620" width="165" height="10" rx="5.0" fill="#c7ccd2" stroke="none" stroke-width="0"/>
<rect x="892.0" y="526" width="268.0" height="120" rx="10" fill="#ffffff" stroke="#33373b" stroke-width="2"/>
<rect x="908.0" y="540" width="30" height="30" rx="6" fill="#e3e7ec" stroke="#33373b" stroke-width="1.6"/>
<text x="908.0" y="596" font-family="Architects Daughter" font-size="16" fill="#33373b" text-anchor="start" font-weight="bold">AI Product Prototypes</text>
<rect x="908.0" y="608" width="236.0" height="10" rx="5.0" fill="#c7ccd2" stroke="none" stroke-width="0"/>
<rect x="908.0" y="620" width="165" height="10" rx="5.0" fill="#c7ccd2" stroke="none" stroke-width="0"/>
<rect x="40" y="666" width="1120" height="70" rx="10" fill="#eef1f4" stroke="#33373b" stroke-width="2"/>
<text x="60" y="696" font-family="Architects Daughter" font-size="24" fill="#33373b" text-anchor="start" font-weight="normal">★ ★ ★ ★ ★</text>
<text x="60" y="722" font-family="Architects Daughter" font-size="15" fill="#6b7178" text-anchor="start" font-weight="normal">Average customer rating</text>
<text x="360" y="708" font-family="Architects Daughter" font-size="18" fill="#6b7178" text-anchor="start" font-weight="normal">“Transformed how we work — top-notch support.”  – Client</text>
<circle cx="1142" cy="748" r="26" fill="#eef1f4" stroke="#33373b" stroke-width="2.2"/>
<text x="1142" y="754" font-family="Architects Daughter" font-size="16" fill="#33373b" text-anchor="middle" font-weight="bold">AI</text>
<line x1="24" y1="794" x2="1176" y2="794" stroke="#c7ccd2" stroke-width="1.4"/>
<text x="600.0" y="818" font-family="Architects Daughter" font-size="18" fill="#6b7178" text-anchor="middle" font-weight="normal">@ AI-Solutions</text></svg>