<svg xmlns="http://www.w3.org/2000/svg" width="1200" height="840" viewBox="0 0 1200 840"><rect width="1200" height="840" fill="#ffffff"/><rect x="8" y="8" width="1184" height="824" rx="16" fill="#ffffff" stroke="#33373b" stroke-width="2.6"/>
<rect x="24" y="20" width="150" height="26" rx="8" fill="#eef1f4" stroke="#33373b" stroke-width="1.6"/>
<text x="36" y="38" font-family="Architects Daughter" font-size="16" fill="#6b7178" text-anchor="start" font-weight="normal">A Web Page</text>
<circle cx="1134" cy="33" r="7" fill="none" stroke="#33373b" stroke-width="2"/>
<circle cx="1156" cy="33" r="7" fill="none" stroke="#33373b" stroke-width="2"/>
<circle cx="1176" cy="33" r="7" fill="none" stroke="#33373b" stroke-width="2"/>
<rect x="24" y="54" width="1152" height="30" rx="15" fill="#fbfbfc" stroke="#33373b" stroke-width="1.6"/>
<circle cx="44" cy="69" r="7" fill="none" stroke="#6b7178" stroke-width="2"/>
<text x="60" y="75" font-family="Architects Daughter" font-size="16" fill="#6b7178" text-anchor="start" font-weight="normal">https://www.aisolutions-demo.com/articles.php</text>
<circle cx="44" cy="124" r="18" fill="#ffffff" stroke="#33373b" stroke-width="2.4"/>
<text x="44" y="130" font-family="Architects Daughter" font-size="18" fill="#33373b" text-anchor="middle" font-weight="bold">AI</text>
<text x="72" y="131" font-family="Architects Daughter" font-size="24" fill="#33373b" text-anchor="start" font-weight="bold">AI-Solutions</text>
<rect x="1093" y="108" width="67" height="34" rx="17" fill="#ffffff" stroke="#33373b" stroke-width="1.8"/>
<text x="1126.5" y="130" font-family="Architects Daughter" font-size="18" fill="#33373b" text-anchor="middle" font-weight="normal">Login</text>
<rect x="922" y="108" width="155" height="34" rx="17.0" fill="#33373b" stroke="#33373b" stroke-width="2.2"/>
<text x="999.5" y="131.12" font-family="Architects Daughter" font-size="18" fill="#ffffff" text-anchor="middle" font-weight="normal">Schedule Demo</text>
<rect x="817" y="108" width="89" height="34" rx="17" fill="#ffffff" stroke="#33373b" stroke-width="1.8"/>
<text x="861.5" y="130" font-family="Architects Daughter" font-size="18" fill="#33373b" text-anchor="middle" font-weight="normal">Contact</text>
<rect x="701" y="108" width="100" height="34" rx="17" fill="#eef1f4" stroke="#33373b" stroke-width="1.8"/>
<text x="751.0" y="130" font-family="Architects Daughter" font-size="18" fill="#33373b" text-anchor="middle" font-weight="normal">Articles</text>
<rect x="607" y="108" width="78" height="34" rx="17" fill="#ffffff" stroke="#33373b" stroke-width="1.8"/>
<text x="646.0" y="130" font-family="Architects Daughter" font-size="18" fill="#33373b" text-anchor="middle" font-weight="normal">Events</text>
<rect x="480" y="108" width="111" height="34" rx="17" fill="#ffffff" stroke="#33373b" stroke-width="1.8"/>
<text x="535.5" y="130" font-family="Architects Daughter" font-size="18" fill="#33373b" text-anchor="middle" font-weight="normal">Solutions</text>
<rect x="408" y="108" width="56" height="34" rx="17" fill="#ffffff" stroke="#33373b" stroke-width="1.8"/>
<text x="436.0" y="130" font-family="Architects Daughter" font-size="18" fill="#33373b" text-anchor="middle" font-weight="normal">Home</text>
<line x1="24" y1="154" x2="1176" y2="154" stroke="#c7ccd2" stroke-width="1.4"/>
<text x="40" y="214" font-family="Architects Daughter" font-size="34" fill="#33373b" text-anchor="start" font-weight="bold">Articles &amp; Insights</text>
<rect x="40" y="232" width="560" height="10" rx="5.0" fill="#c7ccd2" stroke="none" stroke-width="0"/>
<rect x="40" y="252" width="392" height="10" rx="5.0" fill="#c7ccd2" stroke="none" stroke-width="0"/>
<rect x="40.0" y="280" width="361.3333333333333" height="150" rx="10" fill="#fff" stroke="#33373b" stroke-width="2"/>
<rect x="40.0" y="280" width="361.3333333333333" height="56" rx="10" fill="#eef1f4" stroke="#33373b" stroke-width="1.6"/>
<text x="54.0" y="314" font-family="Architects Daughter" font-size="15" fill="#6b7178" text-anchor="start" font-weight="normal">[ Article image ]</text>
<text x="54.0" y="362" font-family="Architects Daughter" font-size="18" fill="#33373b" text-anchor="start" font-weight="bold">AI Trend Insight</text>
<rect x="54.0" y="376" width="333.3333333333333" height="10" rx="5.0" fill="#c7ccd2" stroke="none" stroke-width="0"/>
<rect x="54.0" y="389" width="233" height="10" rx="5.0" fill="#c7ccd2" stroke="none" stroke-width="0"/>
<text x="54.0" y="418" font-family="Architects Daughter" font-size="14" fill="#6b7178" text-anchor="start" font-weight="normal">Category • Jun 2026</text>
<rect x="419.3333333333333" y="280" width="361.3333333333333" height="150" rx="10" fill="#fff" stroke="#33373b" stroke-width="2"/>
<rect x="419.3333333333333" y="280" width="361.3333333333333" height="56" rx="10" fill="#eef1f4" stroke="#33373b" stroke-width="1.6"/>
<text x="433.3333333333333" y="314" font-family="Architects Daughter" font-size="15" fill="#6b7178" text-anchor="start" font-weight="normal">[ Article image ]</text>
<text x="433.3333333333333" y="362" font-family="Architects Daughter" font-size="18" fill="#33373b" text-anchor="start" font-weight="bold">AI Trend Insight</text>
<rect x="433.3333333333333" y="376" width="333.3333333333333" height="10" rx="5.0" fill="#c7ccd2" stroke="none" stroke-width="0"/>
<rect x="433.3333333333333" y="389" width="233" height="10" rx="5.0" fill="#c7ccd2" stroke="none" stroke-width="0"/>
<text x="433.3333333333333" y="418" font-family="Architects Daughter" font-size="14" fill="#6b7178" text-anchor="start" font-weight="normal">Category • Jun 2026</text>
<rect x="798.6666666666666" y="280" width="361.3333333333333" height="150" rx="10" fill="#fff" stroke="#33373b" stroke-width="2"/>
<rect x="798.6666666666666" y="280" width="361.3333333333333" height="56" rx="10" fill="#eef1f4" stroke="#33373b" stroke-width="1.6"/>
<text x="812.6666666666666" y="314" font-family="Architects Daughter" font-size="15" fill="#6b7178" text-anchor="start" font-weight="normal">[ Article image ]</text>
<text x="812.6666666666666" y="362" font-family="Architects Daughter" font-size="18" fill="#33373b" text-anchor="start" font-weight="bold">AI Trend Insight</text>
<rect x="812.6666666666666" y="376" width="333.3333333333333" height="10" rx="5.0" fill="#c7ccd2" stroke="none" stroke-width="0"/>
<rect x="812.6666666666666" y="389" width="233" height="10" rx="5.0" fill="#c7ccd2" stroke="none" stroke-width="0"/>
<text x="812.6666666666666" y="418" font-family="Architects Daughter" font-size="14" fill="#6b7178" text-anchor="start" font-weight="normal">Category • Jun 2026</text>
<rect x="40.0" y="448" width="361.3333333333333" height="150" rx="10" fill="#fff" stroke="#33373b" stroke-width="2"/>
<rect x="40.0" y="448" width="361.3333333333333" height="56" rx="10" fill="#eef1f4" stroke="#33373b" stroke-width="1.6"/>
<text x="54.0" y="482" font-family="Architects Daughter" font-size="15" fill="#6b7178" text-anchor="start" font-weight="normal">[ Article image ]</text>
<text x="54.0" y="530" font-family="Architects Daughter" font-size="18" fill="#33373b" text-anchor="start" font-weight="bold">AI Trend Insight</text>
<rect x="54.0" y="544" width="333.3333333333333" height="10" rx="5.0" fill="#c7ccd2" stroke="none" stroke-width="0"/>
<rect x="54.0" y="557" width="233" height="10" rx="5.0" fill="#c7ccd2" stroke="none" stroke-width="0"/>
<text x="54.0" y="586" font-family="Architects Daughter" font-size="14" fill="#6b7178" text-anchor="start" font-weight="normal">Category • Jun 2026</text>
<rect x="419.3333333333333" y="448" width="361.3333333333333" height="150" rx="10" fill="#fff" stroke="#33373b" stroke-width="2"/>
<rect x="419.3333333333333" y="448" width="361.3333333333333" height="56" rx="10" fill="#eef1f4" stroke="#33373b" stroke-width="1.6"/>
<text x="433.3333333333333" y="482" font-family="Architects Daughter" font-size="15" fill="#6b7178" text-anchor="start" font-weight="normal">[ Article image ]</text>
<text x="433.3333333333333" y="530" font-family="Architects Daughter" font-size="18" fill="#33373b" text-anchor="start" font-weight="bold">AI Trend Insight</text>
<rect x="433.3333333333333" y="544" width="333.3333333333333" height="10" rx="5.0" fill="#c7ccd2" stroke="none" stroke-width="0"/>
<rect x="433.3333333333333" y="557" width="233" height="10" rx="5.0" fill="#c7ccd2" stroke="none" stroke-width="0"/>
<text x="433.3333333333333" y="586" font-family="Architects Daughter" font-size="14" fill="#6b7178" text-anchor="start" font-weight="normal">Category • Jun 2026</text>
<rect x="798.6666666666666" y="448" width="361.3333333333333" height="150" rx="10" fill="#fff" stroke="#33373b" stroke-width="2"/>
<rect x="798.6666666666666" y="448" width="361.3333333333333" height="56" rx="10" fill="#eef1f4" stroke="#33373b" stroke-width="1.6"/>
<text x="812.6666666666666" y="482" font-family="Architects Daughter" font-size="15" fill="#6b7178" text-anchor="start" font-weight="normal">[ Article image ]</text>
<text x="812.6666666666666" y="530" font-family="Architects Daughter" font-size="18" fill="#33373b" text-anchor="start" font-weight="bold">AI Trend Insight</text>
<rect x="812.6666666666666" y="544" width="333.3333333333333" height="10" rx="5.0" fill="#c7ccd2" stroke="none" stroke-width="0"/>
<rect x="812.6666666666666" y="557" width="233" height="10" rx="5.0" fill="#c7ccd2" stroke="none" stroke-width="0"/>
<text x="812.6666666666666" y="586" font-family="Architects Daughter" font-size="14" fill="#6b7178" text-anchor="start" font-weight="normal">Category • Jun 2026</text>
<rect x="510.0" y="616" width="36" height="34" rx="8" fill="#eef1f4" stroke="#33373b" stroke-width="1.6"/>
<text x="528.0" y="638" font-family="Architects Daughter" font-size="16" fill="#33373b" text-anchor="middle" font-weight="normal">1</text>
<rect x="556.0" y="616" width="36" height="34" rx="8" fill="#fff" stroke="#33373b" stroke-width="1.6"/>
<text x="574.0" y="638" font-family="Architects Daughter" font-size="16" fill="#33373b" text-anchor="middle" font-weight="normal">2</text>
<rect x="602.0" y="616" width="36" height="34" rx="8" fill="#fff" stroke="#33373b" stroke-width="1.6"/>
<text x="620.0" y="638" font-family="Architects Daughter" font-size="16" fill="#33373b" text-anchor="middle" font-weight="normal">3</text>
<rect x="648.0" y="616" width="36" height="34" rx="8" fill="#fff" stroke="#33373b" stroke-width="1.6"/>
<text x="666.0" y="638" font-family="Architects Daughter" font-size="16" fill="#33373b" text-anchor="middle" font-weight="normal">4</text>
<circle cx="1142" cy="748" r="26" fill="#eef1f4" stroke="#33373b" stroke-width="2.2"/>
<text x="1142" y="754" font-family="Architects Daughter" font-size="16" fill="#33373b" text-anchor="middle" font-weight="bold">AI</text>
<line x1="24" y1="794" x2="1176" y2="794" stroke="#c7ccd2" stroke-width="1.4"/>
<text x="600.0" y="818" font-family="Architects Daughter" font-size="18" fill="#6b7178" text-anchor="middle" font-weight="normal">@ AI-Solutions</text></svg>