<svg xmlns="http://www.w3.org/2000/svg" width="1200" height="840" viewBox="0 0 1200 840"><rect width="1200" height="840" fill="#ffffff"/><rect x="8" y="8" width="1184" height="824" rx="16" fill="#ffffff" stroke="#33373b" stroke-width="2.6"/>
<rect x="24" y="20" width="150" height="26" rx="8" fill="#eef1f4" stroke="#33373b" stroke-width="1.6"/>
<text x="36" y="38" font-family="Architects Daughter" font-size="16" fill="#6b7178" text-anchor="start" font-weight="normal">A Web Page</text>
<circle cx="1134" cy="33" r="7" fill="none" stroke="#33373b" stroke-width="2"/>
<circle cx="1156" cy="33" r="7" fill="none" stroke="#33373b" stroke-width="2"/>
<circle cx="1176" cy="33" r="7" fill="none" stroke="#33373b" stroke-width="2"/>
<rect x="24" y="54" width="1152" height="30" rx="15" fill="#fbfbfc" stroke="#33373b" stroke-width="1.6"/>
<circle cx="44" cy="69" r="7" fill="none" stroke="#6b7178" stroke-width="2"/>
<text x="60" y="75" font-family="Architects Daughter" font-size="16" fill="#6b7178" text-anchor="start" font-weight="normal">https://www.aisolutions-demo.com/events.php</text>
<circle cx="44" cy="124" r="18" fill="#ffffff" stroke="#33373b" stroke-width="2.4"/>
<text x="44" y="130" font-family="Architects Daughter" font-size="18" fill="#33373b" text-anchor="middle" font-weight="bold">AI</text>
<text x="72" y="131" font-family="Architects Daughter" font-size="24" fill="#33373b" text-anchor="start" font-weight="bold">AI-Solutions</text>
<rect x="1093" y="108" width="67" height="34" rx="17" fill="#ffffff" stroke="#33373b" stroke-width="1.8"/>
<text x="1126.5" y="130" font-family="Architects Daughter" font-size="18" fill="#33373b" text-anchor="middle" font-weight="normal">Login</text>
<rect x="922" y="108" width="155" height="34" rx="17.0" fill="#33373b" stroke="#33373b" stroke-width="2.2"/>
<text x="999.5" y="131.12" font-family="Architects Daughter" font-size="18" fill="#ffffff" text-anchor="middle" font-weight="normal">Schedule Demo</text>
<rect x="817" y="108" width="89" height="34" rx="17" fill="#ffffff" stroke="#33373b" stroke-width="1.8"/>
<text x="861.5" y="130" font-family="Architects Daughter" font-size="18" fill="#33373b" text-anchor="middle" font-weight="normal">Contact</text>
<rect x="701" y="108" width="100" height="34" rx="17" fill="#ffffff" stroke="#33373b" stroke-width="1.8"/>
<text x="751.0" y="130" font-family="Architects Daughter" font-size="18" fill="#33373b" text-anchor="middle" font-weight="normal">Articles</text>
<rect x="607" y="108" width="78" height="34" rx="17" fill="#eef1f4" stroke="#33373b" stroke-width="1.8"/>
<text x="646.0" y="130" font-family="Architects Daughter" font-size="18" fill="#33373b" text-anchor="middle" font-weight="normal">Events</text>
<rect x="480" y="108" width="111" height="34" rx="17" fill="#ffffff" stroke="#33373b" stroke-width="1.8"/>
<text x="535.5" y="130" font-family="Architects Daughter" font-size="18" fill="#33373b" text-anchor="middle" font-weight="normal">Solutions</text>
<rect x="408" y="108" width="56" height="34" rx="17" fill="#ffffff" stroke="#33373b" stroke-width="1.8"/>
<text x="436.0" y="130" font-family="Architects Daughter" font-size="18" fill="#33373b" text-anchor="middle" font-weight="normal">Home</text>
<line x1="24" y1="154" x2="1176" y2="154" stroke="#c7ccd2" stroke-width="1.4"/>
<text x="40" y="214" font-family="Architects Daughter" font-size="34" fill="#33373b" text-anchor="start" font-weight="bold">Events &amp; Photo Gallery</text>
<text x="40" y="256" font-family="Architects Daughter" font-size="20" fill="#33373b" text-anchor="start" font-weight="bold">Upcoming Events</text>
<rect x="40" y="270" width="540" height="80" rx="10" fill="#fff" stroke="#33373b" stroke-width="2"/>
<rect x="56" y="286" width="60" height="48" rx="8" fill="#e3e7ec" stroke="#33373b" stroke-width="1.6"/>
<text x="70" y="308" font-family="Architects Daughter" font-size="13" fill="#6b7178" text-anchor="start" font-weight="normal">DATE</text>
<text x="132" y="304" font-family="Architects Daughter" font-size="18" fill="#33373b" text-anchor="start" font-weight="bold">AI Live Demo Event</text>
<rect x="132" y="316" width="330" height="10" rx="5.0" fill="#c7ccd2" stroke="none" stroke-width="0"/>
<rect x="132" y="329" width="230" height="10" rx="5.0" fill="#c7ccd2" stroke="none" stroke-width="0"/>
<rect x="470" y="292" width="96" height="34" rx="17.0" fill="#33373b" stroke="#33373b" stroke-width="2.2"/>
<text x="518.0" y="314.44" font-family="Architects Daughter" font-size="16" fill="#ffffff" text-anchor="middle" font-weight="normal">Register</text>
<rect x="40" y="362" width="540" height="80" rx="10" fill="#fff" stroke="#33373b" stroke-width="2"/>
<rect x="56" y="378" width="60" height="48" rx="8" fill="#e3e7ec" stroke="#33373b" stroke-width="1.6"/>
<text x="70" y="400" font-family="Architects Daughter" font-size="13" fill="#6b7178" text-anchor="start" font-weight="normal">DATE</text>
<text x="132" y="396" font-family="Architects Daughter" font-size="18" fill="#33373b" text-anchor="start" font-weight="bold">AI Live Demo Event</text>
<rect x="132" y="408" width="330" height="10" rx="5.0" fill="#c7ccd2" stroke="none" stroke-width="0"/>
<rect x="132" y="421" width="230" height="10" rx="5.0" fill="#c7ccd2" stroke="none" stroke-width="0"/>
<rect x="470" y="384" width="96" height="34" rx="17.0" fill="#33373b" stroke="#33373b" stroke-width="2.2"/>
<text x="518.0" y="406.44" font-family="Architects Daughter" font-size="16" fill="#ffffff" text-anchor="middle" font-weight="normal">Register</text>
<text x="620" y="256" font-family="Architects Daughter" font-size="20" fill="#33373b" text-anchor="start" font-weight="bold">Gallery</text>
<rect x="620" y="270" width="168" height="84" rx="8" fill="#eef1f4" stroke="#33373b" stroke-width="1.8"/>
<text x="704" y="318" font-family="Architects Daughter" font-size="15" fill="#6b7178" text-anchor="middle" font-weight="normal">[photo]</text>
<rect x="800" y="270" width="168" height="84" rx="8" fill="#eef1f4" stroke="#33373b" stroke-width="1.8"/>
<text x="884" y="318" font-family="Architects Daughter" font-size="15" fill="#6b7178" text-anchor="middle" font-weight="normal">[photo]</text>
<rect x="980" y="270" width="168" height="84" rx="8" fill="#eef1f4" stroke="#33373b" stroke-width="1.8"/>
<text x="1064" y="318" font-family="Architects Daughter" font-size="15" fill="#6b7178" text-anchor="middle" font-weight="normal">[photo]</text>
<rect x="620" y="366" width="168" height="84" rx="8" fill="#eef1f4" stroke="#33373b" stroke-width="1.8"/>
<text x="704" y="414" font-family="Architects Daughter" font-size="15" fill="#6b7178" text-anchor="middle" font-weight="normal">[photo]</text>
<rect x="800" y="366" width="168" height="84" rx="8" fill="#eef1f4" stroke="#33373b" stroke-width="1.8"/>
<text x="884" y="414" font-family="Architects Daughter" font-size="15" fill="#6b7178" text-anchor="middle" font-weight="normal">[photo]</text>
<rect x="980" y="366" width="168" height="84" rx="8" fill="#eef1f4" stroke="#33373b" stroke-width="1.8"/>
<text x="1064" y="414" font-family="Architects Daughter" font-size="15" fill="#6b7178" text-anchor="middle" font-weight="normal">[photo]</text>
<rect x="40" y="470" width="1120" height="210" rx="12" fill="#fbfbfc" stroke="#33373b" stroke-width="2"/>
<text x="60" y="504" font-family="Architects Daughter" font-size="20" fill="#33373b" text-anchor="start" font-weight="bold">Join our Events — Registration</text>
<text x="60" y="532" font-family="Architects Daughter" font-size="18" fill="#6b7178" text-anchor="start" font-weight="normal">Full Name</text>
<rect x="60" y="540" width="344.0" height="44" rx="8" fill="#fbfbfc" stroke="#33373b" stroke-width="1.8"/>
<text x="428.0" y="532" font-family="Architects Daughter" font-size="18" fill="#6b7178" text-anchor="start" font-weight="normal">Email</text>
<rect x="428.0" y="540" width="344.0" height="44" rx="8" fill="#fbfbfc" stroke="#33373b" stroke-width="1.8"/>
<text x="796.0" y="532" font-family="Architects Daughter" font-size="18" fill="#6b7178" text-anchor="start" font-weight="normal">Phone</text>
<rect x="796.0" y="540" width="344.0" height="44" rx="8" fill="#fbfbfc" stroke="#33373b" stroke-width="1.8"/>
<text x="60" y="602" font-family="Architects Daughter" font-size="18" fill="#6b7178" text-anchor="start" font-weight="normal">Company</text>
<rect x="60" y="610" width="344.0" height="44" rx="8" fill="#fbfbfc" stroke="#33373b" stroke-width="1.8"/>
<text x="428.0" y="602" font-family="Architects Daughter" font-size="18" fill="#6b7178" text-anchor="start" font-weight="normal">Event</text>
<rect x="428.0" y="610" width="344.0" height="44" rx="8" fill="#fbfbfc" stroke="#33373b" stroke-width="1.8"/>
<text x="746.0" y="638.0" font-family="Architects Daughter" font-size="18" fill="#6b7178" text-anchor="start" font-weight="normal">v</text>
<text x="796.0" y="602" font-family="Architects Daughter" font-size="18" fill="#6b7178" text-anchor="start" font-weight="normal">Interest Area</text>
<rect x="796.0" y="610" width="344.0" height="44" rx="8" fill="#fbfbfc" stroke="#33373b" stroke-width="1.8"/>
<text x="1114.0" y="638.0" font-family="Architects Daughter" font-size="18" fill="#6b7178" text-anchor="start" font-weight="normal">v</text>
<circle cx="1142" cy="748" r="26" fill="#eef1f4" stroke="#33373b" stroke-width="2.2"/>
<text x="1142" y="754" font-family="Architects Daughter" font-size="16" fill="#33373b" text-anchor="middle" font-weight="bold">AI</text>
<line x1="24" y1="794" x2="1176" y2="794" stroke="#c7ccd2" stroke-width="1.4"/>
<text x="600.0" y="818" font-family="Architects Daughter" font-size="18" fill="#6b7178" text-anchor="middle" font-weight="normal">@ AI-Solutions</text></svg>