<svg xmlns="http://www.w3.org/2000/svg" width="1200" height="840" viewBox="0 0 1200 840"><rect width="1200" height="840" fill="#ffffff"/><rect x="8" y="8" width="1184" height="824" rx="16" fill="#ffffff" stroke="#33373b" stroke-width="2.6"/>
<rect x="24" y="20" width="150" height="26" rx="8" fill="#eef1f4" stroke="#33373b" stroke-width="1.6"/>
<text x="36" y="38" font-family="Architects Daughter" font-size="16" fill="#6b7178" text-anchor="start" font-weight="normal">A Web Page</text>
<circle cx="1134" cy="33" r="7" fill="none" stroke="#33373b" stroke-width="2"/>
<circle cx="1156" cy="33" r="7" fill="none" stroke="#33373b" stroke-width="2"/>
<circle cx="1176" cy="33" r="7" fill="none" stroke="#33373b" stroke-width="2"/>
<rect x="24" y="54" width="1152" height="30" rx="15" fill="#fbfbfc" stroke="#33373b" stroke-width="1.6"/>
<circle cx="44" cy="69" r="7" fill="none" stroke="#6b7178" stroke-width="2"/>
<text x="60" y="75" font-family="Architects Daughter" font-size="16" fill="#6b7178" text-anchor="start" font-weight="normal">https://www.aisolutions-demo.com/contact.php</text>
<circle cx="44" cy="124" r="18" fill="#ffffff" stroke="#33373b" stroke-width="2.4"/>
<text x="44" y="130" font-family="Architects Daughter" font-size="18" fill="#33373b" text-anchor="middle" font-weight="bold">AI</text>
<text x="72" y="131" font-family="Architects Daughter" font-size="24" fill="#33373b" text-anchor="start" font-weight="bold">AI-Solutions</text>
<rect x="1093" y="108" width="67" height="34" rx="17" fill="#ffffff" stroke="#33373b" stroke-width="1.8"/>
<text x="1126.5" y="130" font-family="Architects Daughter" font-size="18" fill="#33373b" text-anchor="middle" font-weight="normal">Login</text>
<rect x="922" y="108" width="155" height="34" rx="17.0" fill="#33373b" stroke="#33373b" stroke-width="2.2"/>
<text x="999.5" y="131.12" font-family="Architects Daughter" font-size="18" fill="#ffffff" text-anchor="middle" font-weight="normal">Schedule Demo</text>
<rect x="817" y="108" width="89" height="34" rx="17" fill="#eef1f4" stroke="#33373b" stroke-width="1.8"/>
<text x="861.5" y="130" font-family="Architects Daughter" font-size="18" fill="#33373b" text-anchor="middle" font-weight="normal">Contact</text>
<rect x="701" y="108" width="100" height="34" rx="17" fill="#ffffff" stroke="#33373b" stroke-width="1.8"/>
<text x="751.0" y="130" font-family="Architects Daughter" font-size="18" fill="#33373b" text-anchor="middle" font-weight="normal">Articles</text>
<rect x="607" y="108" width="78" height="34" rx="17" fill="#ffffff" stroke="#33373b" stroke-width="1.8"/>
<text x="646.0" y="130" font-family="Architects Daughter" font-size="18" fill="#33373b" text-anchor="middle" font-weight="normal">Events</text>
<rect x="480" y="108" width="111" height="34" rx="17" fill="#ffffff" stroke="#33373b" stroke-width="1.8"/>
<text x="535.5" y="130" font-family="Architects Daughter" font-size="18" fill="#33373b" text-anchor="middle" font-weight="normal">Solutions</text>
<rect x="408" y="108" width="56" height="34" rx="17" fill="#ffffff" stroke="#33373b" stroke-width="1.8"/>
<text x="436.0" y="130" font-family="Architects Daughter" font-size="18" fill="#33373b" text-anchor="middle" font-weight="normal">Home</text>
<line x1="24" y1="154" x2="1176" y2="154" stroke="#c7ccd2" stroke-width="1.4"/>
<text x="40" y="214" font-family="Architects Daughter" font-size="32" fill="#33373b" text-anchor="start" font-weight="bold">Contact Us — Customer Inquiry</text>
<rect x="40" y="232" width="378" height="10" rx="5.0" fill="#c7ccd2" stroke="none" stroke-width="0"/>
<rect x="40" y="262" width="1120" height="440" rx="12" fill="#fbfbfc" stroke="#33373b" stroke-width="2"/>
<text x="64" y="312" font-family="Architects Daughter" font-size="18" fill="#6b7178" text-anchor="start" font-weight="normal">Full Name *</text>
<rect x="64" y="320" width="524.0" height="44" rx="8" fill="#fbfbfc" stroke="#33373b" stroke-width="1.8"/>
<text x="612.0" y="312" font-family="Architects Daughter" font-size="18" fill="#6b7178" text-anchor="start" font-weight="normal">Email Address *</text>
<rect x="612.0" y="320" width="524.0" height="44" rx="8" fill="#fbfbfc" stroke="#33373b" stroke-width="1.8"/>
<text x="64" y="380" font-family="Architects Daughter" font-size="18" fill="#6b7178" text-anchor="start" font-weight="normal">Phone Number *</text>
<rect x="64" y="388" width="524.0" height="44" rx="8" fill="#fbfbfc" stroke="#33373b" stroke-width="1.8"/>
<text x="612.0" y="380" font-family="Architects Daughter" font-size="18" fill="#6b7178" text-anchor="start" font-weight="normal">Company Name *</text>
<rect x="612.0" y="388" width="524.0" height="44" rx="8" fill="#fbfbfc" stroke="#33373b" stroke-width="1.8"/>
<text x="64" y="448" font-family="Architects Daughter" font-size="18" fill="#6b7178" text-anchor="start" font-weight="normal">Country *</text>
<rect x="64" y="456" width="524.0" height="44" rx="8" fill="#fbfbfc" stroke="#33373b" stroke-width="1.8"/>
<text x="612.0" y="448" font-family="Architects Daughter" font-size="18" fill="#6b7178" text-anchor="start" font-weight="normal">Solution Interest *</text>
<rect x="612.0" y="456" width="524.0" height="44" rx="8" fill="#fbfbfc" stroke="#33373b" stroke-width="1.8"/>
<text x="1110.0" y="484.0" font-family="Architects Daughter" font-size="18" fill="#6b7178" text-anchor="start" font-weight="normal">v</text>
<text x="64" y="516" font-family="Architects Daughter" font-size="18" fill="#6b7178" text-anchor="start" font-weight="normal">Job Title *</text>
<rect x="64" y="524" width="524.0" height="44" rx="8" fill="#fbfbfc" stroke="#33373b" stroke-width="1.8"/>
<text x="612.0" y="516" font-family="Architects Daughter" font-size="18" fill="#6b7178" text-anchor="start" font-weight="normal">Security Check: 4 + 5 = ? *</text>
<rect x="612.0" y="524" width="524.0" height="44" rx="8" fill="#fbfbfc" stroke="#33373b" stroke-width="1.8"/>
<text x="64" y="584" font-family="Architects Daughter" font-size="18" fill="#6b7178" text-anchor="start" font-weight="normal">Job Details / Message *</text>
<rect x="64" y="594" width="1072.0" height="56" rx="8" fill="#fff" stroke="#33373b" stroke-width="1.8"/>
<rect x="64" y="664" width="18" height="18" rx="4" fill="#fff" stroke="#33373b" stroke-width="1.8"/>
<text x="92" y="679" font-family="Architects Daughter" font-size="16" fill="#6b7178" text-anchor="start" font-weight="normal">I agree AI-Solutions may store my details.</text>
<rect x="980" y="660" width="150" height="40" rx="20.0" fill="#33373b" stroke="#33373b" stroke-width="2.2"/>
<text x="1055.0" y="686.8" font-family="Architects Daughter" font-size="20" fill="#ffffff" text-anchor="middle" font-weight="normal">Submit Inquiry</text>
<circle cx="1142" cy="748" r="26" fill="#eef1f4" stroke="#33373b" stroke-width="2.2"/>
<text x="1142" y="754" font-family="Architects Daughter" font-size="16" fill="#33373b" text-anchor="middle" font-weight="bold">AI</text>
<line x1="24" y1="794" x2="1176" y2="794" stroke="#c7ccd2" stroke-width="1.4"/>
<text x="600.0" y="818" font-family="Architects Daughter" font-size="18" fill="#6b7178" text-anchor="middle" font-weight="normal">@ AI-Solutions</text></svg>