<svg xmlns="http://www.w3.org/2000/svg" width="1200" height="880" viewBox="0 0 1200 880"><rect width="1200" height="880" fill="#ffffff"/><rect x="8" y="8" width="1184" height="864" rx="16" fill="#ffffff" stroke="#33373b" stroke-width="2.6"/>
<rect x="24" y="20" width="150" height="26" rx="8" fill="#eef1f4" stroke="#33373b" stroke-width="1.6"/>
<text x="36" y="38" font-family="Architects Daughter" font-size="16" fill="#6b7178" text-anchor="start" font-weight="normal">A Web Page</text>
<circle cx="1134" cy="33" r="7" fill="none" stroke="#33373b" stroke-width="2"/>
<circle cx="1156" cy="33" r="7" fill="none" stroke="#33373b" stroke-width="2"/>
<circle cx="1176" cy="33" r="7" fill="none" stroke="#33373b" stroke-width="2"/>
<rect x="24" y="54" width="1152" height="30" rx="15" fill="#fbfbfc" stroke="#33373b" stroke-width="1.6"/>
<circle cx="44" cy="69" r="7" fill="none" stroke="#6b7178" stroke-width="2"/>
<text x="60" y="75" font-family="Architects Daughter" font-size="16" fill="#6b7178" text-anchor="start" font-weight="normal">https://www.aisolutions-demo.com/admin/dashboard.php</text>
<rect x="24" y="100" width="232" height="756" rx="12" fill="#eef1f4" stroke="#33373b" stroke-width="2"/>
<circle cx="58" cy="134" r="16" fill="#fff" stroke="#33373b" stroke-width="2"/>
<text x="58" y="140" font-family="Architects Daughter" font-size="14" fill="#33373b" text-anchor="middle" font-weight="bold">AI</text>
<text x="82" y="132" font-family="Architects Daughter" font-size="18" fill="#33373b" text-anchor="start" font-weight="bold">AI-Solutions</text>
<text x="82" y="150" font-family="Architects Daughter" font-size="13" fill="#6b7178" text-anchor="start" font-weight="normal">Admin Panel</text>
<text x="42" y="180" font-family="Architects Daughter" font-size="13" fill="#6b7178" text-anchor="start" font-weight="normal">OVERVIEW</text>
<rect x="36" y="186" width="208" height="26" rx="7" fill="#ffffff" stroke="#33373b" stroke-width="1.6"/>
<text x="46" y="205" font-family="Architects Daughter" font-size="15" fill="#33373b" text-anchor="start" font-weight="bold">Dashboard</text>
<text x="46" y="233" font-family="Architects Daughter" font-size="15" fill="#33373b" text-anchor="start" font-weight="normal">Visitors</text>
<text x="46" y="261" font-family="Architects Daughter" font-size="15" fill="#33373b" text-anchor="start" font-weight="normal">Monthly Reports</text>
<text x="42" y="294" font-family="Architects Daughter" font-size="13" fill="#6b7178" text-anchor="start" font-weight="normal">CUSTOMER DATA</text>
<text x="46" y="319" font-family="Architects Daughter" font-size="15" fill="#33373b" text-anchor="start" font-weight="normal">Inquiries</text>
<text x="46" y="347" font-family="Architects Daughter" font-size="15" fill="#33373b" text-anchor="start" font-weight="normal">Demo Bookings</text>
<text x="46" y="375" font-family="Architects Daughter" font-size="15" fill="#33373b" text-anchor="start" font-weight="normal">Events</text>
<text x="46" y="403" font-family="Architects Daughter" font-size="15" fill="#33373b" text-anchor="start" font-weight="normal">Chatbot Leads</text>
<text x="46" y="431" font-family="Architects Daughter" font-size="15" fill="#33373b" text-anchor="start" font-weight="normal">Feedback</text>
<text x="42" y="464" font-family="Architects Daughter" font-size="13" fill="#6b7178" text-anchor="start" font-weight="normal">OPERATIONS</text>
<text x="46" y="489" font-family="Architects Daughter" font-size="15" fill="#33373b" text-anchor="start" font-weight="normal">SMTP</text>
<text x="46" y="517" font-family="Architects Daughter" font-size="15" fill="#33373b" text-anchor="start" font-weight="normal">Outbox</text>
<text x="46" y="545" font-family="Architects Daughter" font-size="15" fill="#33373b" text-anchor="start" font-weight="normal">Records</text>
<text x="46" y="573" font-family="Architects Daughter" font-size="15" fill="#33373b" text-anchor="start" font-weight="normal">Activity Log</text>
<text x="276" y="122" font-family="Architects Daughter" font-size="30" fill="#33373b" text-anchor="start" font-weight="bold">Dashboard</text>
<text x="276" y="146" font-family="Architects Daughter" font-size="15" fill="#6b7178" text-anchor="start" font-weight="normal">Welcome, Admin. Review visitors, demand, demos, and leads.</text>
<rect x="276.0" y="162" width="168.8" height="66" rx="10" fill="#fff" stroke="#33373b" stroke-width="2"/>
<text x="290.0" y="196" font-family="Architects Daughter" font-size="24" fill="#33373b" text-anchor="start" font-weight="bold">123</text>
<text x="290.0" y="218" font-family="Architects Daughter" font-size="13" fill="#6b7178" text-anchor="start" font-weight="normal">Page Views</text>
<rect x="458.8" y="162" width="168.8" height="66" rx="10" fill="#fff" stroke="#33373b" stroke-width="2"/>
<text x="472.8" y="196" font-family="Architects Daughter" font-size="24" fill="#33373b" text-anchor="start" font-weight="bold">123</text>
<text x="472.8" y="218" font-family="Architects Daughter" font-size="13" fill="#6b7178" text-anchor="start" font-weight="normal">Visitors</text>
<rect x="641.6" y="162" width="168.8" height="66" rx="10" fill="#fff" stroke="#33373b" stroke-width="2"/>
<text x="655.6" y="196" font-family="Architects Daughter" font-size="24" fill="#33373b" text-anchor="start" font-weight="bold">123</text>
<text x="655.6" y="218" font-family="Architects Daughter" font-size="13" fill="#6b7178" text-anchor="start" font-weight="normal">Demand</text>
<rect x="824.4000000000001" y="162" width="168.8" height="66" rx="10" fill="#fff" stroke="#33373b" stroke-width="2"/>
<text x="838.4000000000001" y="196" font-family="Architects Daughter" font-size="24" fill="#33373b" text-anchor="start" font-weight="bold">123</text>
<text x="838.4000000000001" y="218" font-family="Architects Daughter" font-size="13" fill="#6b7178" text-anchor="start" font-weight="normal">Avg Rating</text>
<rect x="1007.2" y="162" width="168.8" height="66" rx="10" fill="#fff" stroke="#33373b" stroke-width="2"/>
<text x="1021.2" y="196" font-family="Architects Daughter" font-size="24" fill="#33373b" text-anchor="start" font-weight="bold">123</text>
<text x="1021.2" y="218" font-family="Architects Daughter" font-size="13" fill="#6b7178" text-anchor="start" font-weight="normal">Events</text>
<rect x="276" y="246" width="900" height="170" rx="12" fill="#fff" stroke="#33373b" stroke-width="2"/>
<text x="292" y="274" font-family="Architects Daughter" font-size="17" fill="#33373b" text-anchor="start" font-weight="bold">Website Engagement (Bar)</text>
<rect x="306.0" y="356" width="40" height="40" rx="4" fill="#e3e7ec" stroke="#33373b" stroke-width="1.4"/>
<rect x="442.66666666666663" y="340" width="40" height="56" rx="4" fill="#e3e7ec" stroke="#33373b" stroke-width="1.4"/>
<rect x="579.3333333333333" y="324" width="40" height="72" rx="4" fill="#e3e7ec" stroke="#33373b" stroke-width="1.4"/>
<rect x="716.0" y="308" width="40" height="88" rx="4" fill="#e3e7ec" stroke="#33373b" stroke-width="1.4"/>
<rect x="852.6666666666666" y="292" width="40" height="104" rx="4" fill="#e3e7ec" stroke="#33373b" stroke-width="1.4"/>
<rect x="989.3333333333333" y="276" width="40" height="120" rx="4" fill="#e3e7ec" stroke="#33373b" stroke-width="1.4"/>
<rect x="276" y="432" width="442.0" height="170" rx="12" fill="#fff" stroke="#33373b" stroke-width="2"/>
<text x="292" y="460" font-family="Architects Daughter" font-size="16" fill="#33373b" text-anchor="start" font-weight="bold">7-Day Visitor Trend (Line)</text>
<polyline points="306.0,556.0 369.6666666666667,535.0 433.3333333333333,570.0 497.0,521.0 560.6666666666666,514.0 624.3333333333333,549.0 688.0,528.0" fill="none" stroke="#33373b" stroke-width="2.4"/>
<rect x="734.0" y="432" width="442.0" height="170" rx="12" fill="#fff" stroke="#33373b" stroke-width="2"/>
<text x="750.0" y="460" font-family="Architects Daughter" font-size="16" fill="#33373b" text-anchor="start" font-weight="bold">Device Mix (Doughnut)</text>
<circle cx="884.28" cy="532" r="46" fill="none" stroke="#33373b" stroke-width="14"/>
<circle cx="884.28" cy="532" r="46" fill="none" stroke="#e3e7ec" stroke-width="14"/>
<path d="M 884.28 486 A 46 46 0 0 1 928.28 520" fill="none" stroke="#33373b" stroke-width="14"/>
<text x="868.0" y="526" font-family="Architects Daughter" font-size="15" fill="#6b7178" text-anchor="start" font-weight="normal">Desktop</text>
<text x="868.0" y="550" font-family="Architects Daughter" font-size="15" fill="#6b7178" text-anchor="start" font-weight="normal">Mobile</text>
<rect x="276" y="618" width="900" height="120" rx="12" fill="#fff" stroke="#33373b" stroke-width="2"/>
<text x="292" y="646" font-family="Architects Daughter" font-size="16" fill="#33373b" text-anchor="start" font-weight="bold">Recent Submissions</text>
<line x1="292" y1="660" x2="1160" y2="660" stroke="#c7ccd2" stroke-width="2"/>
<rect x="292" y="676" width="602" height="10" rx="5.0" fill="#c7ccd2" stroke="none" stroke-width="0"/>
<rect x="292" y="696" width="602" height="10" rx="5.0" fill="#c7ccd2" stroke="none" stroke-width="0"/>
<rect x="292" y="716" width="602" height="10" rx="5.0" fill="#c7ccd2" stroke="none" stroke-width="0"/></svg>